PathFileType	4	(X/Y/Z)	 s03c0001.trc
DataRate	CameraRate	NumFrames	NumMarkers	Units	OrigDataRate	OrigDataStartFrame	OrigNumFrames
200	200	4	49	mm	200	251	2000
Frame#	Time	racr			lacr			c7			jug			rlel			rdr			llel			ldr			s2			lic			ric			lasi			rasi			rpsi			lpsi			rgt			lgt			rth1			rth2			rth3			rth4			rlfc			rmfc			rsh1			rsh2			rsh3			rsh4			rlmal			rmmal			rcal			rtoe			rmt5			rmt1			lth1			lth2			lth4			lth3			llfc			lmfc			lsh1			lsh2			lsh3			lsh4			llmal			lmmal			lcal			ltoe			lmt1			lmt5			
		X1	Y1	Z1	X2	Y2	Z2	X3	Y3	Z3	X4	Y4	Z4	X5	Y5	Z5	X6	Y6	Z6	X7	Y7	Z7	X8	Y8	Z8	X9	Y9	Z9	X10	Y10	Z10	X11	Y11	Z11	X12	Y12	Z12	X13	Y13	Z13	X14	Y14	Z14	X15	Y15	Z15	X16	Y16	Z16	X17	Y17	Z17	X18	Y18	Z18	X19	Y19	Z19	X20	Y20	Z20	X21	Y21	Z21	X22	Y22	Z22	X23	Y23	Z23	X24	Y24	Z24	X25	Y25	Z25	X26	Y26	Z26	X27	Y27	Z27	X28	Y28	Z28	X29	Y29	Z29	X30	Y30	Z30	X31	Y31	Z31	X32	Y32	Z32	X33	Y33	Z33	X34	Y34	Z34	X35	Y35	Z35	X36	Y36	Z36	X37	Y37	Z37	X38	Y38	Z38	X39	Y39	Z39	X40	Y40	Z40	X41	Y41	Z41	X42	Y42	Z42	X43	Y43	Z43	X44	Y44	Z44	X45	Y45	Z45	X46	Y46	Z46	X47	Y47	Z47	X48	Y48	Z48	X49	Y49	Z49	
251	1.2550	251.342782	1572.665528	585.636057	246.701853	1589.192765	204.117390	184.286533	1606.847558	397.956231	352.466400	1557.368788	396.468637	177.026599	1300.617024	694.235851	271.125454	1120.928912	889.833793	175.439207	1317.612685	97.342584	259.359401	1128.322033	-108.682050	153.770510	1066.014889	375.794606	288.910223	1166.285104	196.458062	281.925903	1151.489397	568.181949	351.200923	1104.953186	239.193886	352.279740	1101.158391	521.354349	155.111136	1106.529758	425.544167	158.425106	1115.177271	342.598523	264.038719	1008.708978	562.848656	277.266151	1015.484174	188.483244	278.713614	870.354515	577.767028	310.081648	787.043939	571.998424	300.619597	703.888607	557.367443	346.094918	792.791435	567.354991	295.769464	577.504814	525.567447	327.087313	557.243176	419.138564	241.986541	412.448592	553.244936	253.306503	323.358361	548.345497	218.043559	242.923431	542.813345	287.384437	320.133871	530.867937	208.609686	103.797390	531.389043	248.675554	122.006560	450.422278	165.094419	55.935418	483.624323	468.306250	91.453782	503.921670	353.313333	43.303162	563.556472	378.567537	81.766408	454.384641	290.404329	865.978196	175.036801	314.797989	783.096221	182.472887	350.819359	785.556701	184.491692	294.458341	698.151825	195.934420	309.952007	577.229276	221.171684	331.879884	559.126127	334.454211	251.180676	413.221263	184.744268	263.716799	329.023038	193.298044	228.788654	244.521391	196.791262	298.058115	324.999602	211.409915	220.429273	110.648554	206.050394	259.284178	124.795176	292.819049	172.370839	54.971879	258.092140	479.349479	92.821235	234.440034	389.020786	73.525736	285.922564	358.179468	50.863513	172.502529	
252	1.2600	251.359051	1572.664699	585.649565	246.720900	1589.181787	204.119422	184.312162	1606.854195	397.933332	352.475702	1557.364206	396.470668	177.049206	1300.600706	694.225393	271.146384	1120.907294	889.818452	175.457766	1317.589878	97.348576	259.361796	1128.300172	-108.657212	153.770511	1066.014891	375.794605	288.935605	1166.285159	196.462749	281.926852	1151.487970	568.181741	351.230509	1104.950523	239.205757	352.292507	1101.167440	521.366474	155.128386	1106.525627	425.540994	158.449933	1115.173083	342.601040	264.066000	1008.702978	562.849265	277.293975	1015.490942	188.470672	278.731453	870.351237	577.772347	310.110041	787.038316	572.003986	300.640489	703.881631	557.377895	346.099857	792.806885	567.358584	295.789790	577.503847	525.569503	327.104510	557.242861	419.123962	242.011972	412.456320	553.246643	253.315714	323.353362	548.353110	218.045371	242.921767	542.809929	287.393777	320.124122	530.858354	208.601739	103.812774	531.387514	248.671129	122.027397	450.424775	165.094434	55.935437	483.624324	468.305755	91.447631	503.907939	353.322376	43.325661	563.553929	378.574038	81.770564	454.379675	290.418759	865.989481	175.048895	314.822221	783.093784	182.453284	350.820407	785.575946	184.477668	294.466465	698.172003	195.924206	309.998044	577.228878	221.153041	331.882586	559.129331	334.469522	251.182216	413.219299	184.734092	263.723767	329.023657	193.288613	228.788262	244.533666	196.786273	298.051118	325.003499	211.393601	220.426759	110.670096	206.048568	259.277908	124.812670	292.822718	172.374620	54.978955	258.090676	479.327693	92.793471	234.431612	389.014636	73.527072	285.929598	358.182497	50.863799	172.493635	
253	1.2650	251.374303	1572.669456	585.637044	246.741648	1589.172031	204.122513	184.305107	1606.836804	397.967689	352.503482	1557.359010	396.478791	177.077138	1300.594186	694.221508	271.161383	1120.908681	889.831572	175.478904	1317.585825	97.350772	259.375943	1128.285936	-108.640093	153.782660	1066.024073	375.811674	288.936078	1166.280264	196.464169	281.978726	1151.469349	568.174342	351.244896	1104.945291	239.204754	352.309479	1101.159004	521.389263	155.150455	1106.536771	425.542057	158.478452	1115.170394	342.601662	264.081117	1008.704553	562.858040	277.325581	1015.493940	188.481794	278.742356	870.358801	577.779968	310.136140	787.040342	572.016474	300.662598	703.867712	557.366976	346.117978	792.810191	567.379604	295.813782	577.503176	525.567993	327.129802	557.238288	419.139082	242.036925	412.447240	553.237951	253.339269	323.356105	548.332824	218.061892	242.914633	542.795122	287.400205	320.128745	530.868311	208.604309	103.815278	531.404999	248.652109	122.018247	450.423707	165.111873	55.923055	483.647194	468.310365	91.448568	503.898425	353.313872	43.321099	563.546586	378.582765	81.774532	454.381722	290.429815	866.002237	175.046141	314.842332	783.098036	182.463237	350.833523	785.562753	184.479717	294.474599	698.145615	195.951043	309.972404	577.215359	221.165357	331.892794	559.122124	334.462754	251.187627	413.219526	184.735688	263.734712	329.026221	193.286382	228.788635	244.521393	196.791266	298.067104	325.002718	211.408261	220.427851	110.669564	206.044243	259.282145	124.789953	292.827430	172.381477	54.983956	258.083554	479.343854	92.797773	234.454446	389.007785	73.518800	285.908178	358.149086	50.863918	172.498167	
254	1.2700	251.389085	1572.661167	585.651669	246.762962	1589.163378	204.126819	184.359475	1607.072729	397.911567	352.515859	1557.380532	396.479518	177.092287	1300.560505	694.247038	271.224017	1120.904352	889.829610	175.480533	1317.572870	97.378396	259.376197	1128.268075	-108.639918	153.813456	1066.015729	375.813047	288.932013	1166.256496	196.481945	281.964027	1151.468109	568.180004	351.287964	1104.954535	239.227294	352.319024	1101.157876	521.383508	155.175043	1106.524197	425.545441	158.492265	1115.172714	342.595864	264.078893	1008.701858	562.856456	277.336555	1015.494011	188.471141	278.779994	870.350012	577.779740	310.130818	787.035180	572.016573	300.664385	703.877043	557.385199	346.139350	792.801378	567.392581	295.815621	577.500669	525.578910	327.166617	557.227482	419.144259	242.051635	412.452058	553.243968	253.349322	323.359815	548.347036	218.068050	242.923935	542.801733	287.416776	320.132634	530.870872	208.590641	103.814393	531.379523	248.649813	122.019627	450.417909	165.094454	55.935461	483.624325	468.290246	91.452465	503.902371	353.301378	43.311852	563.554558	378.579996	81.756077	454.389198	290.446470	865.988294	175.050509	314.841645	783.104760	182.463172	350.857647	785.576104	184.467318	294.480472	698.169715	195.935010	310.003343	577.220504	221.159662	331.927137	559.132541	334.467715	251.201083	413.222877	184.743559	263.735575	329.021964	193.293206	228.794732	244.540709	196.785195	298.083906	325.007670	211.415109	220.436523	110.659783	206.045922	259.292192	124.806370	292.828632	172.378319	54.987082	258.086593	479.331126	92.802631	234.435761	388.970410	73.496601	285.922237	358.180191	50.873301	172.484805	
